<svg xmlns="http://www.w3.org/2000/svg" xmlns:xlink="http://www.w3.org/1999/xlink" version="1.1" x="0px" y="0px" width="345.307px" height="79.133px" viewBox="0 0 345.307 79.133" enable-background="new 0 0 345.307 79.133" xml:space="preserve" id="svg-replaced-logo">
	<defs>
	</defs>
	<path class="tough" fill="#656565" d="M194.176,61.07H205.1V40.943c0-1.032,0.043-2.021,0.143-2.967c0.115-0.946,0.287-1.85,0.545-2.709   c0.559-1.792,1.391-3.369,2.523-4.731c1.132-1.376,2.48-2.437,4.071-3.211c1.591-0.774,3.34-1.161,5.276-1.175   c1.82,0.014,3.24,0.387,4.258,1.132c1.018,0.745,1.72,1.792,2.122,3.125c0.416,1.333,0.602,2.896,0.588,4.688v20.127   c-0.015,2.05,0.444,3.541,1.362,4.473c0.932,0.932,2.394,1.391,4.401,1.376h10.408v-9.204h-3.441c-0.602,0-1.075-0.172-1.39-0.487   c-0.33-0.33-0.502-0.803-0.502-1.405V32.858c0-3.857-0.602-7.025-1.792-9.49c-1.19-2.466-2.91-4.272-5.19-5.448   c-2.279-1.175-5.046-1.764-8.329-1.749c-1.892,0.014-3.641,0.272-5.261,0.76c-1.605,0.502-3.039,1.161-4.329,2.007   c-1.276,0.831-2.38,1.763-3.297,2.781c-0.932,1.032-1.649,2.079-2.165,3.14h-0.172c0-0.014,0.029-0.372,0.086-1.047   c0.043-0.674,0.072-1.563,0.087-2.652V5.763c0.014-1.979-0.459-3.427-1.405-4.373c-0.946-0.932-2.437-1.405-4.444-1.39h-10.408V9.29   h3.44c0.602,0,1.076,0.143,1.405,0.459c0.316,0.315,0.487,0.789,0.487,1.434V61.07L194.176,61.07z M19.99,44.986   c0.014,2.437,0.329,4.56,0.932,6.336c0.602,1.764,1.419,3.269,2.437,4.487c1.033,1.205,2.18,2.194,3.456,2.953   c1.276,0.746,2.609,1.333,3.97,1.72c1.362,0.402,2.681,0.675,3.971,0.818c1.276,0.143,2.437,0.214,3.469,0.2   c1.004-0.014,1.806-0.057,2.423-0.129c0.603-0.071,0.918-0.115,0.932-0.129v-9.547c-0.014,0.014-0.186,0.044-0.544,0.086   c-0.345,0.057-0.833,0.086-1.434,0.086c-0.774,0.015-1.648-0.072-2.624-0.272c-0.974-0.201-1.935-0.574-2.852-1.147   c-0.917-0.574-1.677-1.405-2.279-2.495c-0.603-1.103-0.918-2.552-0.933-4.343V25.89h9.979v-8.687h-9.979V5.247H20.248H19.99v9.387   v2.569v8.687v2.419V44.986L19.99,44.986z M42.183,39.137c0.028,3.383,0.645,6.48,1.878,9.289c1.233,2.795,2.939,5.218,5.118,7.254   c2.194,2.05,4.731,3.627,7.627,4.73c2.896,1.119,6.021,1.677,9.376,1.692c3.383-0.014,6.523-0.573,9.418-1.692   c2.911-1.104,5.462-2.68,7.656-4.73c2.193-2.036,3.899-4.459,5.132-7.254c1.233-2.81,1.864-5.906,1.878-9.289   c-0.014-3.369-0.645-6.452-1.878-9.247c-1.233-2.795-2.939-5.218-5.132-7.268c-2.193-2.05-4.745-3.627-7.656-4.745   c-2.896-1.119-6.035-1.692-9.418-1.706c-3.355,0.014-6.48,0.588-9.376,1.706c-2.896,1.118-5.433,2.695-7.627,4.745   c-2.179,2.05-3.885,4.473-5.118,7.268C42.829,32.685,42.212,35.768,42.183,39.137L42.183,39.137z M53.193,39.137   c0.014-2.036,0.359-3.885,1.033-5.548c0.688-1.677,1.62-3.111,2.81-4.33c1.204-1.204,2.58-2.136,4.143-2.795   c1.562-0.66,3.225-1.004,5.003-1.004c1.792,0,3.483,0.344,5.061,1.004c1.563,0.659,2.953,1.591,4.157,2.795   c1.205,1.218,2.137,2.652,2.824,4.33c0.674,1.663,1.018,3.512,1.032,5.548c-0.014,2.05-0.358,3.913-1.032,5.59   c-0.688,1.663-1.62,3.111-2.824,4.315c-1.204,1.204-2.594,2.136-4.157,2.781c-1.577,0.66-3.269,0.989-5.061,0.989   c-1.778,0-3.441-0.33-5.003-0.989c-1.563-0.645-2.939-1.577-4.143-2.781c-1.19-1.205-2.122-2.652-2.81-4.315   C53.552,43.05,53.207,41.187,53.193,39.137L53.193,39.137z M95.6,45.416c0.015,3.971,0.631,7.182,1.85,9.634   c1.204,2.465,2.939,4.258,5.204,5.39c2.251,1.118,4.946,1.677,8.086,1.663c1.892-0.014,3.656-0.272,5.275-0.788   c1.606-0.502,3.068-1.19,4.358-2.065c1.29-0.86,2.409-1.835,3.34-2.91c0.917-1.089,1.648-2.208,2.165-3.355h0.172   c0,0.015-0.014,0.215-0.043,0.603c-0.029,0.387-0.043,0.845-0.043,1.376v1.204c0,1.563,0.488,2.767,1.462,3.612   c0.975,0.846,2.409,1.276,4.301,1.29h10.064v-9.204h-3.44c-0.602,0-1.075-0.172-1.391-0.487c-0.33-0.33-0.502-0.803-0.502-1.405   V17.203h-10.924v20.128c0,1.978-0.272,3.842-0.802,5.619c-0.545,1.763-1.333,3.34-2.38,4.716c-1.047,1.376-2.337,2.452-3.856,3.254   c-1.52,0.788-3.283,1.19-5.261,1.204c-1.792-0.014-3.183-0.387-4.171-1.132c-0.99-0.746-1.677-1.792-2.064-3.125   c-0.387-1.333-0.574-2.896-0.559-4.688V22.966c0.014-1.978-0.445-3.426-1.362-4.372c-0.932-0.932-2.394-1.405-4.401-1.391H90.267   v9.289h3.441c0.602,0,1.075,0.144,1.405,0.459c0.315,0.316,0.487,0.789,0.487,1.434V45.416L95.6,45.416z M141.878,38.019   c0-3.025,0.43-5.863,1.262-8.501c0.831-2.623,2.079-4.946,3.713-6.939c1.649-1.993,3.67-3.555,6.093-4.688   c2.423-1.133,5.204-1.706,8.372-1.721c2.022,0.014,3.799,0.23,5.304,0.645c1.506,0.416,2.781,0.917,3.842,1.534   c1.047,0.617,1.892,1.219,2.523,1.835c0.645,0.602,1.118,1.118,1.405,1.534c0.287,0.416,0.43,0.631,0.43,0.645h0.172   c0-0.014,0-0.129,0-0.33c0-0.215,0-0.473,0-0.788c0-0.674,0.158-1.319,0.488-1.921c0.329-0.616,0.846-1.118,1.548-1.52   c0.717-0.387,1.634-0.588,2.781-0.602h10.15v9.289h-3.355c-0.573,0-1.018,0.144-1.362,0.445c-0.344,0.287-0.516,0.717-0.531,1.276   v30.191c-0.014,3.011-0.444,5.649-1.304,7.942c-0.86,2.279-2.036,4.229-3.541,5.864c-1.505,1.619-3.24,2.938-5.204,3.956   c-1.964,1.032-4.057,1.778-6.293,2.251c-2.222,0.487-4.487,0.717-6.796,0.717c-1.849,0-3.698-0.172-5.548-0.487   c-1.849-0.315-3.627-0.76-5.333-1.319c-1.706-0.574-3.268-1.233-4.688-1.978l3.355-8.601c0.014,0.014,0.33,0.172,0.946,0.458   c0.631,0.287,1.491,0.617,2.594,1.004c1.119,0.387,2.394,0.717,3.856,1.003c1.463,0.287,3.039,0.445,4.731,0.459   c1.663,0,3.24-0.186,4.731-0.559c1.491-0.387,2.796-1.004,3.942-1.849c1.147-0.846,2.05-1.95,2.71-3.326   c0.659-1.376,0.989-3.039,1.003-5.018v-2.065c0-0.358,0.014-0.702,0.029-1.061c0.014-0.358,0.028-0.645,0.043-0.889   c0.014-0.244,0.014-0.359,0.014-0.373h-0.172c-1.276,1.85-2.896,3.269-4.874,4.229c-1.993,0.961-4.429,1.448-7.34,1.448   c-3.14-0.029-5.935-0.616-8.372-1.778c-2.437-1.161-4.501-2.766-6.178-4.802c-1.692-2.05-2.968-4.401-3.828-7.067   C142.322,43.896,141.878,41.043,141.878,38.019L141.878,38.019z M163.897,51.007c1.319,0.014,2.595-0.2,3.814-0.631   c1.218-0.416,2.308-1.132,3.269-2.107c0.975-0.989,1.734-2.308,2.294-3.971c0.559-1.663,0.846-3.727,0.86-6.193   c-0.014-2.48-0.301-4.544-0.874-6.193c-0.574-1.635-1.362-2.924-2.365-3.871c-1.003-0.946-2.165-1.62-3.469-2.007   c-1.319-0.401-2.724-0.588-4.215-0.574c-2.208,0.014-4.071,0.516-5.591,1.52c-1.519,1.003-2.681,2.408-3.469,4.243   c-0.774,1.821-1.175,3.971-1.175,6.451c0,2.58,0.43,4.86,1.262,6.852c0.846,2.007,2.079,3.584,3.698,4.731   C159.554,50.405,161.547,50.978,163.897,51.007z"></path>
	<path class="lex" fill="#1EA9D0" d="M303.16,61.07h12.128l7.569-12.214c0.201-0.33,0.401-0.674,0.602-1.018c0.201-0.358,0.359-0.659,0.487-0.917   c0.129-0.243,0.201-0.372,0.201-0.387h0.172c0,0.014,0.057,0.143,0.172,0.416c0.129,0.258,0.272,0.559,0.459,0.917   c0.172,0.359,0.372,0.688,0.573,0.989l7.655,12.214h12.128l-14.365-22.192l7.312-10.924c0.272-0.43,0.559-0.745,0.845-0.96   c0.287-0.201,0.631-0.344,1.033-0.416c0.387-0.058,0.889-0.1,1.477-0.087h3.096v-9.289h-7.569c-1.218-0.014-2.236,0.1-3.053,0.33   c-0.817,0.229-1.548,0.631-2.179,1.233c-0.631,0.602-1.262,1.462-1.907,2.566l-4.3,7.225c-0.201,0.387-0.416,0.803-0.631,1.233   c-0.201,0.43-0.373,0.803-0.516,1.118c-0.144,0.315-0.23,0.473-0.23,0.488h-0.172c0-0.015-0.086-0.172-0.229-0.488   c-0.129-0.315-0.315-0.688-0.516-1.118c-0.215-0.43-0.43-0.846-0.631-1.233l-4.301-7.225c-0.646-1.104-1.291-1.964-1.921-2.566   c-0.645-0.602-1.376-1.003-2.208-1.233c-0.817-0.23-1.821-0.344-3.01-0.33h-7.655v9.289h3.183c0.602-0.014,1.089,0.029,1.477,0.087   c0.401,0.072,0.745,0.215,1.032,0.416c0.287,0.215,0.573,0.53,0.846,0.96l7.225,10.924L303.16,61.07L303.16,61.07z M244.925,55.221   c-0.014,2.05,0.445,3.541,1.376,4.473c0.932,0.932,2.423,1.391,4.473,1.376h10.322v-9.204h-3.355c-0.602,0-1.076-0.172-1.405-0.487   c-0.316-0.33-0.487-0.803-0.487-1.405V5.849c0.014-2.007-0.459-3.498-1.405-4.444C253.498,0.459,252.008-0.014,250,0h-10.408V9.29   h3.44c0.603,0,1.076,0.143,1.405,0.459c0.316,0.315,0.487,0.789,0.487,1.434V55.221L244.925,55.221z M261.441,39.137   c0.014,3.139,0.559,6.092,1.634,8.845c1.09,2.767,2.652,5.204,4.702,7.311c2.05,2.122,4.516,3.77,7.411,4.975   c2.911,1.204,6.179,1.806,9.82,1.835c2.194-0.014,4.2-0.244,6.035-0.688c1.82-0.444,3.455-0.989,4.888-1.649   c1.433-0.645,2.652-1.304,3.656-1.949c0.989-0.66,1.749-1.204,2.265-1.649c0.53-0.444,0.789-0.674,0.789-0.688l-4.559-7.569   c0,0.014-0.201,0.186-0.602,0.516c-0.401,0.315-0.961,0.731-1.692,1.204c-0.731,0.488-1.605,0.975-2.623,1.462   c-1.018,0.473-2.151,0.889-3.398,1.204c-1.233,0.33-2.566,0.501-3.986,0.516c-1.663,0-3.24-0.258-4.731-0.745   c-1.49-0.502-2.824-1.247-4.014-2.236c-1.19-1.003-2.165-2.222-2.924-3.698c-0.774-1.462-1.262-3.168-1.491-5.104H302.9   c0-0.014,0.014-0.158,0.043-0.459c0.029-0.287,0.058-0.645,0.086-1.075c0.029-0.444,0.058-0.889,0.086-1.333   c0.029-0.444,0.043-0.846,0.043-1.176c0-2.924-0.43-5.634-1.276-8.157c-0.846-2.509-2.079-4.716-3.727-6.609   c-1.649-1.892-3.685-3.369-6.093-4.429c-2.423-1.061-5.204-1.606-8.344-1.62c-3.297,0.014-6.308,0.574-9.031,1.692   c-2.724,1.104-5.061,2.681-7.039,4.731c-1.978,2.035-3.498,4.458-4.573,7.254C262,32.657,261.456,35.739,261.441,39.137   L261.441,39.137z M272.968,33.46c0.401-1.849,1.104-3.426,2.079-4.745c0.974-1.319,2.208-2.337,3.67-3.039   c1.462-0.717,3.139-1.075,5.003-1.075c1.505,0.014,2.867,0.387,4.086,1.132c1.233,0.745,2.208,1.778,2.953,3.096   c0.745,1.319,1.147,2.867,1.218,4.631H272.968z"></path>
	<rect class="square" x="8.457" y="10.299" fill-rule="evenodd" clip-rule="evenodd" fill="#1EA9D0" width="8.687" height="8.687"></rect>
	<rect class="square" x="4.758" y="0.645" fill-rule="evenodd" clip-rule="evenodd" fill="#1EA9D0" width="5.646" height="5.646"></rect>
	<rect class="square" x="0" y="9.042" fill-rule="evenodd" clip-rule="evenodd" fill="#1EA9D0" width="4.496" height="4.495"></rect>
</svg>